<svg width="29" height="28" viewBox="0 0 29 28" fill="none" xmlns="http://www.w3.org/2000/svg">
<circle cx="14.5" cy="14" r="14" fill="#F07431"/>
<path d="M10.3917 20V18.434L15.3957 13.682C15.8157 13.286 16.1277 12.938 16.3317 12.638C16.5357 12.338 16.6677 12.062 16.7277 11.81C16.7997 11.546 16.8357 11.3 16.8357 11.072C16.8357 10.496 16.6377 10.052 16.2417 9.74C15.8457 9.416 15.2637 9.254 14.4957 9.254C13.8837 9.254 13.3257 9.362 12.8217 9.578C12.3297 9.794 11.9037 10.124 11.5437 10.568L9.90572 9.308C10.3977 8.648 11.0577 8.138 11.8857 7.778C12.7257 7.406 13.6617 7.22 14.6937 7.22C15.6057 7.22 16.3977 7.37 17.0697 7.67C17.7537 7.958 18.2757 8.372 18.6357 8.912C19.0077 9.452 19.1937 10.094 19.1937 10.838C19.1937 11.246 19.1397 11.654 19.0317 12.062C18.9237 12.458 18.7197 12.878 18.4197 13.322C18.1197 13.766 17.6817 14.264 17.1057 14.816L12.8037 18.902L12.3177 18.02H19.6797V20H10.3917Z" fill="white"/>
</svg>
