<svg width="29" height="28" viewBox="0 0 29 28" fill="none" xmlns="http://www.w3.org/2000/svg">
<circle cx="14.5" cy="14" r="14" fill="#F07431"/>
<path d="M14.5137 20.18C13.6257 20.18 12.7557 20.054 11.9037 19.802C11.0637 19.538 10.3557 19.178 9.77972 18.722L10.7877 16.904C11.2437 17.276 11.7957 17.576 12.4437 17.804C13.0917 18.032 13.7697 18.146 14.4777 18.146C15.3177 18.146 15.9717 17.978 16.4397 17.642C16.9077 17.294 17.1417 16.826 17.1417 16.238C17.1417 15.662 16.9257 15.206 16.4937 14.87C16.0617 14.534 15.3657 14.366 14.4057 14.366H13.2537V12.764L16.8537 8.48L17.1597 9.362H10.3917V7.4H18.9777V8.966L15.3777 13.25L14.1537 12.53H14.8557C16.4037 12.53 17.5617 12.878 18.3297 13.574C19.1097 14.258 19.4997 15.14 19.4997 16.22C19.4997 16.928 19.3197 17.582 18.9597 18.182C18.5997 18.782 18.0477 19.268 17.3037 19.64C16.5717 20 15.6417 20.18 14.5137 20.18Z" fill="white"/>
</svg>
