<svg width="29" height="28" viewBox="0 0 29 28" fill="none" xmlns="http://www.w3.org/2000/svg">
<circle cx="14.5" cy="14" r="14" fill="#F07431"/>
<path d="M14.7121 20.18C13.8241 20.18 12.9541 20.054 12.1021 19.802C11.2621 19.538 10.5541 19.178 9.97814 18.722L10.9681 16.904C11.4241 17.276 11.9761 17.576 12.6241 17.804C13.2841 18.032 13.9681 18.146 14.6761 18.146C15.5041 18.146 16.1521 17.972 16.6201 17.624C17.1001 17.276 17.3401 16.808 17.3401 16.22C17.3401 15.824 17.2381 15.476 17.0341 15.176C16.8421 14.876 16.4941 14.648 15.9901 14.492C15.4981 14.336 14.8201 14.258 13.9561 14.258H10.9141L11.5621 7.4H18.9601V9.362H12.4261L13.6501 8.246L13.1641 13.376L11.9401 12.278H14.4781C15.7261 12.278 16.7281 12.446 17.4841 12.782C18.2521 13.106 18.8101 13.562 19.1581 14.15C19.5181 14.726 19.6981 15.386 19.6981 16.13C19.6981 16.862 19.5181 17.534 19.1581 18.146C18.7981 18.758 18.2461 19.25 17.5021 19.622C16.7701 19.994 15.8401 20.18 14.7121 20.18Z" fill="white"/>
</svg>
